<svg width="1225" height="1770" viewBox="0 0 1225 1770" fill="none" xmlns="http://www.w3.org/2000/svg">
<line x1="0.15" x2="0.15" y2="1770" stroke="#B6B6B6" stroke-opacity="0.1" stroke-width="0.3"/>
<line x1="0.15" x2="0.15" y2="1770" stroke="#B6B6B6" stroke-opacity="0.1" stroke-width="0.3"/>
<line x1="0.15" x2="0.15" y2="1770" stroke="#B6B6B6" stroke-opacity="0.1" stroke-width="0.3"/>
<line x1="0.15" x2="0.15" y2="1770" stroke="#B6B6B6" stroke-opacity="0.1" stroke-width="0.3"/>
<line x1="1224.15" x2="1224.15" y2="1770" stroke="#B6B6B6" stroke-opacity="0.1" stroke-width="0.3"/>
<line x1="1224.15" x2="1224.15" y2="1770" stroke="#B6B6B6" stroke-opacity="0.1" stroke-width="0.3"/>
<line x1="1224.15" x2="1224.15" y2="1770" stroke="#B6B6B6" stroke-opacity="0.1" stroke-width="0.3"/>
<line x1="1224.15" x2="1224.15" y2="1770" stroke="#B6B6B6" stroke-opacity="0.1" stroke-width="0.3"/>
<line x1="1071.15" x2="1071.15" y2="1770" stroke="#B6B6B6" stroke-opacity="0.1" stroke-width="0.3"/>
<line x1="1071.15" x2="1071.15" y2="1770" stroke="#B6B6B6" stroke-opacity="0.1" stroke-width="0.3"/>
<line x1="1071.15" x2="1071.15" y2="1770" stroke="#B6B6B6" stroke-opacity="0.1" stroke-width="0.3"/>
<line x1="1071.15" x2="1071.15" y2="1770" stroke="#B6B6B6" stroke-opacity="0.1" stroke-width="0.3"/>
<line x1="918.15" x2="918.15" y2="1770" stroke="#B6B6B6" stroke-opacity="0.1" stroke-width="0.3"/>
<line x1="918.15" x2="918.15" y2="1770" stroke="#B6B6B6" stroke-opacity="0.1" stroke-width="0.3"/>
<line x1="918.15" x2="918.15" y2="1770" stroke="#B6B6B6" stroke-opacity="0.1" stroke-width="0.3"/>
<line x1="918.15" x2="918.15" y2="1770" stroke="#B6B6B6" stroke-opacity="0.1" stroke-width="0.3"/>
<line x1="765.15" x2="765.15" y2="1770" stroke="#B6B6B6" stroke-opacity="0.1" stroke-width="0.3"/>
<line x1="765.15" x2="765.15" y2="1770" stroke="#B6B6B6" stroke-opacity="0.1" stroke-width="0.3"/>
<line x1="765.15" x2="765.15" y2="1770" stroke="#B6B6B6" stroke-opacity="0.1" stroke-width="0.3"/>
<line x1="765.15" x2="765.15" y2="1770" stroke="#B6B6B6" stroke-opacity="0.1" stroke-width="0.3"/>
<line x1="612.15" x2="612.15" y2="1770" stroke="#B6B6B6" stroke-opacity="0.1" stroke-width="0.3"/>
<line x1="612.15" x2="612.15" y2="1770" stroke="#B6B6B6" stroke-opacity="0.1" stroke-width="0.3"/>
<line x1="612.15" x2="612.15" y2="1770" stroke="#B6B6B6" stroke-opacity="0.1" stroke-width="0.3"/>
<line x1="612.15" x2="612.15" y2="1770" stroke="#B6B6B6" stroke-opacity="0.1" stroke-width="0.3"/>
<line x1="459.15" x2="459.15" y2="1770" stroke="#B6B6B6" stroke-opacity="0.1" stroke-width="0.3"/>
<line x1="459.15" x2="459.15" y2="1770" stroke="#B6B6B6" stroke-opacity="0.1" stroke-width="0.3"/>
<line x1="459.15" x2="459.15" y2="1770" stroke="#B6B6B6" stroke-opacity="0.1" stroke-width="0.3"/>
<line x1="459.15" x2="459.15" y2="1770" stroke="#B6B6B6" stroke-opacity="0.1" stroke-width="0.3"/>
<line x1="306.15" x2="306.15" y2="1770" stroke="#B6B6B6" stroke-opacity="0.1" stroke-width="0.3"/>
<line x1="306.15" x2="306.15" y2="1770" stroke="#B6B6B6" stroke-opacity="0.1" stroke-width="0.3"/>
<line x1="306.15" x2="306.15" y2="1770" stroke="#B6B6B6" stroke-opacity="0.1" stroke-width="0.3"/>
<line x1="306.15" x2="306.15" y2="1770" stroke="#B6B6B6" stroke-opacity="0.1" stroke-width="0.3"/>
<line x1="153.15" x2="153.15" y2="1770" stroke="#B6B6B6" stroke-opacity="0.1" stroke-width="0.3"/>
<line x1="153.15" x2="153.15" y2="1770" stroke="#B6B6B6" stroke-opacity="0.1" stroke-width="0.3"/>
<line x1="153.15" x2="153.15" y2="1770" stroke="#B6B6B6" stroke-opacity="0.1" stroke-width="0.3"/>
<line x1="153.15" x2="153.15" y2="1770" stroke="#B6B6B6" stroke-opacity="0.1" stroke-width="0.3"/>
</svg>
