<svg width="426" height="405" viewBox="0 0 426 405" fill="none" xmlns="http://www.w3.org/2000/svg">
<circle cx="209" cy="203" r="74.75" stroke="black" stroke-opacity="0.58" stroke-width="0.5"/>
<path d="M173.463 126.572L169.94 118.587L170.907 118.16L172.476 121.716L176.733 119.837L175.164 116.282L176.131 115.855L179.655 123.84L178.688 124.266L177.112 120.695L172.854 122.574L174.43 126.145L173.463 126.572Z" fill="black"/>
<path d="M196.613 115.752L196.015 111.929L197.006 111.756L198.018 118.223L197.027 118.396L196.856 117.301L196.788 117.313C196.689 117.668 196.497 117.988 196.214 118.274C195.931 118.557 195.546 118.741 195.059 118.826C194.656 118.897 194.284 118.871 193.943 118.749C193.601 118.624 193.313 118.398 193.077 118.07C192.841 117.739 192.681 117.298 192.594 116.748L191.951 112.639L192.942 112.466L193.575 116.508C193.648 116.979 193.839 117.333 194.146 117.567C194.456 117.801 194.816 117.883 195.228 117.811C195.474 117.768 195.714 117.661 195.949 117.49C196.187 117.319 196.372 117.087 196.505 116.796C196.64 116.504 196.676 116.156 196.613 115.752Z" fill="black"/>
<path d="M214.192 117.892L214.864 111.381L215.833 111.451L215.728 112.468L215.813 112.474C215.985 112.136 216.232 111.882 216.555 111.712C216.879 111.538 217.253 111.467 217.678 111.498C218.109 111.529 218.457 111.652 218.723 111.867C218.992 112.08 219.19 112.366 219.315 112.726L219.383 112.73C219.585 112.406 219.864 112.157 220.218 111.983C220.573 111.807 220.985 111.735 221.452 111.769C222.036 111.811 222.495 112.027 222.828 112.419C223.162 112.807 223.29 113.384 223.211 114.15L222.761 118.507L221.758 118.435L222.207 114.078C222.257 113.597 222.161 113.245 221.918 113.019C221.676 112.794 221.377 112.669 221.019 112.643C220.56 112.61 220.191 112.723 219.91 112.982C219.629 113.238 219.467 113.576 219.424 113.997L218.987 118.236L217.967 118.163L218.427 113.704C218.465 113.333 218.375 113.027 218.158 112.783C217.94 112.537 217.642 112.4 217.262 112.373C217.001 112.354 216.751 112.406 216.51 112.528C216.272 112.651 216.07 112.83 215.906 113.066C215.745 113.299 215.648 113.575 215.615 113.895L215.195 117.964L214.192 117.892Z" fill="black"/>
<path d="M240.237 123.639C239.843 123.508 239.513 123.317 239.247 123.064C238.981 122.808 238.806 122.51 238.722 122.168C238.638 121.823 238.671 121.451 238.82 121.051C238.951 120.7 239.127 120.438 239.349 120.267C239.571 120.092 239.823 119.981 240.104 119.934C240.385 119.887 240.679 119.879 240.985 119.912C241.295 119.943 241.601 119.987 241.903 120.046C242.299 120.123 242.618 120.189 242.862 120.242C243.109 120.294 243.298 120.308 243.428 120.282C243.562 120.258 243.657 120.169 243.713 120.018L243.725 119.986C243.872 119.592 243.877 119.249 243.74 118.959C243.606 118.669 243.319 118.451 242.879 118.306C242.423 118.154 242.029 118.134 241.697 118.246C241.365 118.357 241.104 118.507 240.916 118.696L240.129 118.076C240.43 117.757 240.753 117.538 241.1 117.42C241.451 117.3 241.802 117.252 242.154 117.276C242.509 117.298 242.843 117.361 243.156 117.464C243.356 117.53 243.576 117.63 243.817 117.764C244.062 117.896 244.279 118.074 244.468 118.298C244.66 118.523 244.782 118.808 244.836 119.152C244.89 119.495 244.826 119.911 244.644 120.398L243.138 124.439L242.183 124.123L242.493 123.292L242.444 123.276C242.33 123.388 242.169 123.494 241.962 123.596C241.754 123.698 241.505 123.76 241.214 123.783C240.924 123.807 240.598 123.759 240.237 123.639ZM240.698 122.841C241.075 122.966 241.421 122.998 241.734 122.937C242.05 122.878 242.318 122.754 242.536 122.566C242.757 122.379 242.916 122.158 243.011 121.902L243.332 121.04C243.274 121.074 243.169 121.089 243.016 121.083C242.868 121.076 242.699 121.057 242.51 121.027C242.325 120.996 242.144 120.963 241.969 120.929C241.798 120.893 241.658 120.865 241.551 120.844C241.291 120.794 241.04 120.769 240.797 120.769C240.558 120.768 240.347 120.816 240.162 120.913C239.981 121.009 239.846 121.176 239.756 121.416C239.634 121.743 239.665 122.031 239.848 122.281C240.034 122.528 240.318 122.714 240.698 122.841Z" fill="black"/>
<path d="M262.522 130.321L260.279 133.557L259.433 133.011L263.163 127.632L263.979 128.159L263.397 129L263.468 129.046C263.787 128.856 264.134 128.763 264.512 128.766C264.891 128.768 265.288 128.902 265.704 129.17C266.076 129.411 266.35 129.696 266.526 130.025C266.703 130.352 266.765 130.717 266.711 131.118C266.659 131.517 266.475 131.945 266.157 132.403L263.788 135.821L262.943 135.275L265.274 131.914C265.567 131.491 265.683 131.089 265.622 130.709C265.562 130.326 265.337 130.008 264.946 129.756C264.676 129.582 264.395 129.483 264.103 129.461C263.814 129.439 263.532 129.499 263.258 129.64C262.984 129.781 262.739 130.008 262.522 130.321Z" fill="black"/>
<path d="M280.569 155.753L288.326 151.753L289.69 154.368C290.005 154.972 290.16 155.522 290.155 156.016C290.153 156.51 290.021 156.942 289.76 157.313C289.499 157.685 289.14 157.988 288.683 158.224C288.226 158.46 287.772 158.575 287.321 158.571C286.87 158.567 286.443 158.425 286.04 158.143C285.64 157.861 285.283 157.42 284.971 156.82L283.867 154.704L284.716 154.267L285.803 156.353C286.019 156.766 286.253 157.067 286.505 157.256C286.759 157.448 287.027 157.544 287.308 157.542C287.593 157.542 287.891 157.462 288.202 157.302C288.512 157.142 288.754 156.944 288.925 156.708C289.097 156.473 289.18 156.195 289.174 155.876C289.17 155.555 289.059 155.185 288.841 154.767L287.981 153.12L281.058 156.69L280.569 155.753ZM285.953 157.599L283.462 161.3L282.895 160.212L285.402 156.541L285.953 157.599Z" fill="black"/>
<path d="M290.055 177.081C289.917 176.466 289.934 175.903 290.105 175.392C290.279 174.883 290.584 174.45 291.019 174.092C291.457 173.737 292.003 173.482 292.655 173.326C293.307 173.171 293.909 173.153 294.46 173.273C295.014 173.395 295.478 173.638 295.854 174.001C296.232 174.367 296.486 174.838 296.615 175.414C296.69 175.747 296.708 176.089 296.67 176.439C296.632 176.79 296.519 177.128 296.33 177.453C296.143 177.778 295.864 178.068 295.494 178.323C295.123 178.577 294.64 178.775 294.046 178.917L293.631 179.016L292.529 174.092L293.375 173.891L294.254 177.816C294.613 177.731 294.917 177.582 295.167 177.371C295.417 177.163 295.595 176.907 295.699 176.605C295.803 176.306 295.816 175.978 295.737 175.624C295.649 175.233 295.477 174.918 295.219 174.678C294.965 174.441 294.668 174.282 294.327 174.203C293.986 174.123 293.64 174.125 293.289 174.209L292.725 174.343C292.245 174.458 291.855 174.638 291.558 174.884C291.265 175.132 291.064 175.426 290.957 175.767C290.853 176.107 290.845 176.476 290.934 176.872C290.991 177.13 291.079 177.354 291.198 177.545C291.319 177.738 291.471 177.893 291.651 178.011C291.835 178.128 292.046 178.202 292.286 178.232L292.233 179.243C291.89 179.22 291.57 179.119 291.274 178.942C290.981 178.763 290.728 178.517 290.515 178.203C290.305 177.888 290.152 177.514 290.055 177.081Z" fill="black"/>
<path d="M298.395 199.531L298.174 198.626C298.327 198.571 298.477 198.489 298.623 198.379C298.772 198.273 298.897 198.127 298.998 197.94C299.099 197.754 299.155 197.514 299.166 197.222C299.182 196.822 299.102 196.487 298.928 196.219C298.756 195.953 298.53 195.818 298.249 195.815C297.999 195.813 297.798 195.902 297.646 196.082C297.494 196.262 297.362 196.545 297.251 196.93L296.975 197.898C296.81 198.481 296.576 198.915 296.272 199.199C295.972 199.482 295.592 199.622 295.135 199.617C294.76 199.613 294.429 199.502 294.142 199.283C293.855 199.067 293.633 198.767 293.478 198.382C293.322 197.997 293.254 197.55 293.274 197.042C293.299 196.375 293.466 195.825 293.772 195.39C294.079 194.956 294.513 194.684 295.074 194.573L295.276 195.529C294.92 195.616 294.649 195.786 294.463 196.036C294.277 196.29 294.176 196.623 294.161 197.034C294.143 197.503 294.228 197.876 294.416 198.153C294.607 198.433 294.843 198.575 295.124 198.578C295.351 198.58 295.545 198.503 295.704 198.345C295.867 198.188 295.993 197.945 296.082 197.616L296.38 196.529C296.545 195.931 296.782 195.494 297.091 195.216C297.403 194.941 297.785 194.805 298.236 194.81C298.606 194.814 298.928 194.921 299.205 195.131C299.48 195.344 299.692 195.631 299.84 195.994C299.988 196.359 300.053 196.771 300.036 197.231C300.011 197.878 299.849 198.385 299.551 198.751C299.252 199.12 298.867 199.38 298.395 199.531Z" fill="black"/>
<path d="M291.1 218.248C291.271 217.682 291.557 217.222 291.958 216.866C292.358 216.514 292.839 216.282 293.4 216.172C293.961 216.064 294.568 216.096 295.222 216.268C295.881 216.442 296.421 216.712 296.841 217.078C297.261 217.447 297.542 217.879 297.686 218.375C297.829 218.874 297.815 219.406 297.644 219.971C297.472 220.537 297.187 220.996 296.787 221.349C296.385 221.704 295.903 221.935 295.34 222.042C294.776 222.152 294.164 222.12 293.505 221.946C292.851 221.774 292.316 221.504 291.899 221.136C291.482 220.77 291.202 220.338 291.059 219.84C290.915 219.344 290.929 218.813 291.1 218.248ZM291.973 218.478C291.843 218.907 291.848 219.29 291.986 219.626C292.125 219.962 292.356 220.245 292.678 220.473C293 220.702 293.373 220.872 293.796 220.984C294.219 221.095 294.633 221.132 295.039 221.095C295.445 221.058 295.802 220.931 296.111 220.713C296.42 220.495 296.64 220.171 296.77 219.741C296.9 219.312 296.894 218.929 296.753 218.592C296.611 218.255 296.378 217.972 296.053 217.742C295.728 217.513 295.354 217.343 294.931 217.231C294.508 217.12 294.095 217.083 293.692 217.12C293.289 217.158 292.934 217.286 292.628 217.505C292.321 217.724 292.103 218.048 291.973 218.478Z" fill="black"/>
<path d="M285.439 240.556L288.817 242.442L288.297 243.303L282.582 240.111L283.103 239.251L284.07 239.791L284.105 239.733C283.895 239.439 283.771 239.097 283.736 238.707C283.703 238.318 283.814 237.911 284.07 237.489C284.282 237.139 284.548 236.871 284.869 236.686C285.193 236.503 285.56 236.422 285.972 236.444C286.386 236.467 286.836 236.614 287.322 236.886L290.953 238.913L290.433 239.774L286.861 237.779C286.444 237.546 286.043 237.475 285.657 237.565C285.269 237.657 284.967 237.882 284.75 238.239C284.621 238.453 284.545 238.702 284.523 238.985C284.499 239.271 284.557 239.554 284.697 239.834C284.835 240.116 285.082 240.356 285.439 240.556Z" fill="black"/>
<path d="M273.665 253.564L278.385 258.099L277.694 258.783L276.982 258.098L276.933 258.146C277.082 258.454 277.118 258.788 277.041 259.148C276.964 259.507 276.787 259.825 276.508 260.101C276.456 260.153 276.389 260.217 276.308 260.293C276.227 260.368 276.165 260.424 276.12 260.461L275.383 259.752C275.413 259.734 275.478 259.688 275.577 259.614C275.676 259.543 275.773 259.461 275.868 259.367C276.094 259.144 276.248 258.898 276.33 258.629C276.411 258.365 276.419 258.101 276.354 257.838C276.289 257.578 276.15 257.346 275.937 257.142L272.951 254.272L273.665 253.564Z" fill="black"/>
<path d="M255.666 269.422C256.193 269.108 256.723 268.962 257.254 268.983C257.785 269.004 258.285 269.17 258.755 269.483C259.224 269.796 259.628 270.231 259.967 270.79C260.312 271.358 260.512 271.922 260.566 272.481C260.619 273.045 260.531 273.561 260.301 274.032C260.071 274.506 259.702 274.894 259.194 275.197C258.798 275.432 258.398 275.571 257.992 275.614C257.586 275.657 257.202 275.608 256.84 275.467C256.478 275.325 256.167 275.094 255.905 274.773L256.77 274.259C256.99 274.475 257.274 274.613 257.621 274.675C257.966 274.74 258.329 274.66 258.71 274.433C259.047 274.233 259.289 273.969 259.437 273.644C259.584 273.322 259.632 272.961 259.582 272.561C259.531 272.165 259.377 271.755 259.121 271.333C258.858 270.901 258.561 270.565 258.23 270.326C257.896 270.088 257.549 269.956 257.19 269.928C256.829 269.902 256.477 269.99 256.135 270.194C255.91 270.327 255.73 270.488 255.594 270.674C255.458 270.861 255.371 271.065 255.333 271.286C255.294 271.507 255.31 271.736 255.38 271.972L254.516 272.486C254.364 272.127 254.304 271.757 254.337 271.378C254.368 271.002 254.494 270.643 254.714 270.3C254.934 269.962 255.251 269.669 255.666 269.422Z" fill="black"/>
<path d="M236.609 279.349C237.213 279.166 237.772 279.142 238.288 279.276C238.803 279.414 239.249 279.689 239.627 280.099C240.003 280.514 240.285 281.043 240.474 281.686C240.662 282.329 240.712 282.932 240.622 283.493C240.53 284.059 240.314 284.543 239.973 284.946C239.631 285.352 239.177 285.642 238.611 285.813C238.285 285.912 237.947 285.955 237.597 285.942C237.247 285.93 236.905 285.84 236.572 285.674C236.24 285.511 235.938 285.252 235.665 284.898C235.393 284.545 235.171 284.075 234.999 283.489L234.879 283.08L239.707 281.616L239.952 282.45L236.102 283.617C236.206 283.971 236.369 284.266 236.592 284.501C236.813 284.738 237.075 284.897 237.381 284.979C237.684 285.063 238.009 285.052 238.357 284.946C238.74 284.83 239.044 284.634 239.268 284.358C239.49 284.086 239.632 283.776 239.692 283.428C239.753 283.08 239.733 282.733 239.631 282.387L239.468 281.831C239.329 281.356 239.13 280.979 238.87 280.698C238.608 280.422 238.305 280.242 237.961 280.159C237.618 280.079 237.252 280.098 236.863 280.216C236.61 280.293 236.392 280.397 236.209 280.53C236.024 280.666 235.878 280.829 235.771 281.019C235.665 281.212 235.603 281.429 235.585 281.672L234.579 281.692C234.584 281.346 234.667 281.019 234.827 280.709C234.989 280.401 235.22 280.129 235.521 279.893C235.822 279.659 236.185 279.478 236.609 279.349Z" fill="black"/>
<path d="M198.211 291.339L196.967 291.131L195.483 283.544L195.382 283.527L191.015 290.138L189.771 289.93L191.507 281.378L192.482 281.54L191.163 288.038L191.247 288.052L195.257 282.003L196.198 282.16L197.569 289.108L197.653 289.122L198.972 282.623L199.947 282.786L198.211 291.339Z" fill="black"/>
<path d="M174.69 279.495C175.064 279.674 175.367 279.906 175.6 280.19C175.831 280.477 175.967 280.795 176.008 281.145C176.048 281.498 175.969 281.863 175.772 282.24C175.598 282.573 175.39 282.81 175.149 282.953C174.906 283.098 174.643 283.176 174.358 283.188C174.073 283.2 173.781 283.17 173.481 283.099C173.178 283.03 172.88 282.947 172.587 282.851C172.205 282.725 171.896 282.62 171.661 282.536C171.423 282.453 171.237 282.417 171.104 282.425C170.969 282.433 170.863 282.509 170.788 282.652L170.772 282.682C170.578 283.055 170.53 283.394 170.629 283.7C170.727 284.004 170.984 284.256 171.402 284.456C171.835 284.663 172.223 284.732 172.567 284.664C172.91 284.595 173.187 284.479 173.398 284.315L174.101 285.029C173.763 285.308 173.414 285.484 173.055 285.558C172.692 285.633 172.338 285.637 171.992 285.569C171.642 285.502 171.319 285.398 171.022 285.256C170.832 285.165 170.626 285.039 170.404 284.876C170.177 284.714 169.984 284.51 169.825 284.264C169.663 284.016 169.577 283.719 169.566 283.371C169.556 283.023 169.672 282.619 169.913 282.158L171.912 278.337L172.819 278.771L172.408 279.556L172.454 279.578C172.582 279.482 172.755 279.396 172.973 279.321C173.192 279.246 173.447 279.216 173.738 279.229C174.029 279.242 174.346 279.331 174.69 279.495ZM174.132 280.229C173.774 280.058 173.435 279.982 173.116 280.003C172.795 280.023 172.515 280.112 172.275 280.271C172.032 280.429 171.847 280.628 171.721 280.87L171.294 281.686C171.356 281.659 171.462 281.658 171.613 281.682C171.76 281.708 171.925 281.748 172.108 281.801C172.288 281.856 172.463 281.911 172.632 281.967C172.798 282.024 172.932 282.069 173.036 282.103C173.288 282.186 173.534 282.242 173.775 282.272C174.012 282.304 174.228 282.283 174.423 282.209C174.614 282.137 174.77 281.988 174.888 281.761C175.05 281.452 175.056 281.162 174.906 280.892C174.752 280.623 174.494 280.402 174.132 280.229Z" fill="black"/>
<path d="M154.129 273.2L156.753 270.264L157.521 270.913L153.159 275.793L152.417 275.166L153.098 274.404L153.033 274.349C152.694 274.498 152.339 274.547 151.965 274.495C151.59 274.446 151.214 274.262 150.836 273.944C150.497 273.658 150.262 273.34 150.129 272.99C149.994 272.642 149.978 272.272 150.081 271.879C150.183 271.489 150.419 271.087 150.79 270.671L153.562 267.571L154.33 268.219L151.604 271.269C151.261 271.653 151.096 272.037 151.109 272.424C151.12 272.812 151.303 273.156 151.66 273.457C151.905 273.664 152.17 273.797 152.456 273.856C152.74 273.914 153.026 273.89 153.315 273.784C153.604 273.679 153.875 273.484 154.129 273.2Z" fill="black"/>
<path d="M140.879 255.327C141.117 255.667 141.268 256.019 141.333 256.384C141.395 256.75 141.36 257.099 141.227 257.43C141.093 257.762 140.849 258.048 140.497 258.288C140.187 258.498 139.893 258.609 139.616 258.619C139.336 258.631 139.07 258.573 138.818 258.445C138.566 258.318 138.327 258.151 138.102 257.943C137.873 257.735 137.654 257.517 137.447 257.291C137.177 256.994 136.96 256.751 136.797 256.563C136.63 256.374 136.487 256.252 136.368 256.195C136.247 256.137 136.12 256.153 135.986 256.244L135.958 256.263C135.61 256.5 135.406 256.778 135.345 257.097C135.283 257.414 135.385 257.763 135.65 258.142C135.926 258.535 136.229 258.784 136.559 258.89C136.889 258.995 137.185 259.026 137.446 258.982L137.711 259.956C137.285 260.04 136.898 260.028 136.552 259.92C136.202 259.811 135.894 259.643 135.627 259.416C135.356 259.187 135.126 258.938 134.937 258.668C134.817 258.496 134.699 258.284 134.585 258.032C134.467 257.779 134.398 257.505 134.378 257.209C134.357 256.911 134.425 256.605 134.583 256.291C134.742 255.977 135.036 255.674 135.465 255.382L139.031 252.956L139.608 253.78L138.875 254.278L138.904 254.32C139.061 254.296 139.252 254.304 139.477 254.343C139.702 254.382 139.937 254.478 140.183 254.631C140.428 254.783 140.66 255.015 140.879 255.327ZM140.044 255.71C139.816 255.384 139.559 255.153 139.273 255.018C138.986 254.88 138.7 254.823 138.416 254.848C138.13 254.871 137.874 254.959 137.649 255.113L136.888 255.63C136.955 255.637 137.047 255.687 137.165 255.782C137.28 255.876 137.404 255.991 137.537 256.127C137.667 256.262 137.791 256.395 137.911 256.527C138.027 256.658 138.122 256.763 138.195 256.844C138.373 257.038 138.559 257.207 138.753 257.35C138.943 257.493 139.14 257.579 139.344 257.608C139.545 257.636 139.751 257.579 139.962 257.435C140.251 257.238 140.395 256.984 140.395 256.672C140.391 256.358 140.274 256.038 140.044 255.71Z" fill="black"/>
<path d="M131.905 236.202C132.072 236.658 132.157 237.072 132.16 237.444C132.165 237.815 132.113 238.144 132.004 238.433C131.897 238.718 131.76 238.965 131.593 239.172L130.791 238.615C130.872 238.488 130.96 238.332 131.056 238.148C131.155 237.963 131.216 237.738 131.24 237.471C131.265 237.201 131.21 236.881 131.074 236.51C130.893 236.014 130.623 235.649 130.266 235.415C129.908 235.181 129.473 235.158 128.962 235.348L127.715 235.81L127.744 235.89C127.882 235.918 128.056 235.965 128.268 236.032C128.477 236.098 128.688 236.225 128.903 236.415C129.114 236.604 129.292 236.898 129.439 237.298C129.62 237.794 129.666 238.284 129.576 238.765C129.485 239.244 129.257 239.682 128.894 240.077C128.529 240.47 128.027 240.785 127.388 241.022C126.759 241.255 126.171 241.347 125.624 241.298C125.074 241.251 124.599 241.077 124.199 240.777C123.797 240.477 123.501 240.069 123.311 239.551C123.165 239.151 123.116 238.809 123.163 238.525C123.207 238.239 123.29 238.002 123.412 237.815C123.53 237.625 123.63 237.476 123.711 237.367L123.676 237.271L122.701 237.633L122.367 236.72L128.681 234.38C129.208 234.184 129.681 234.145 130.099 234.263C130.519 234.377 130.879 234.607 131.181 234.953C131.485 235.295 131.726 235.711 131.905 236.202ZM128.545 237.484C128.406 237.105 128.203 236.817 127.934 236.62C127.665 236.423 127.344 236.316 126.969 236.3C126.594 236.285 126.18 236.361 125.728 236.529C125.285 236.693 124.919 236.904 124.63 237.163C124.34 237.422 124.148 237.717 124.051 238.05C123.955 238.383 123.977 238.741 124.118 239.125C124.264 239.526 124.487 239.822 124.787 240.013C125.086 240.202 125.43 240.301 125.82 240.308C126.209 240.312 126.611 240.237 127.026 240.083C127.453 239.925 127.805 239.719 128.084 239.464C128.359 239.207 128.542 238.912 128.632 238.579C128.718 238.244 128.689 237.879 128.545 237.484Z" fill="black"/>
<path d="M123.725 217.067C123.782 217.695 123.693 218.253 123.458 218.739C123.219 219.224 122.862 219.617 122.384 219.919C121.904 220.219 121.33 220.407 120.664 220.482C119.998 220.556 119.4 220.501 118.869 220.315C118.336 220.126 117.907 219.829 117.582 219.422C117.254 219.013 117.063 218.514 117.01 217.926C116.979 217.586 117.005 217.245 117.088 216.901C117.171 216.557 117.327 216.235 117.557 215.935C117.783 215.635 118.097 215.381 118.497 215.173C118.898 214.965 119.401 214.827 120.008 214.759L120.432 214.711L120.887 219.736L120.024 219.833L119.66 215.827C119.293 215.868 118.972 215.979 118.698 216.158C118.423 216.335 118.214 216.567 118.072 216.855C117.93 217.139 117.875 217.463 117.908 217.825C117.944 218.224 118.074 218.558 118.298 218.827C118.519 219.094 118.793 219.287 119.121 219.408C119.448 219.528 119.791 219.568 120.15 219.528L120.726 219.463C121.217 219.408 121.626 219.276 121.952 219.068C122.275 218.857 122.512 218.589 122.662 218.263C122.809 217.938 122.864 217.573 122.828 217.168C122.804 216.905 122.746 216.672 122.653 216.468C122.557 216.261 122.428 216.089 122.264 215.95C122.097 215.811 121.897 215.713 121.664 215.653L121.847 214.655C122.184 214.72 122.487 214.859 122.757 215.071C123.025 215.284 123.244 215.56 123.414 215.898C123.582 216.236 123.685 216.626 123.725 217.067Z" fill="black"/>
<path d="M122.625 198.966L116.138 198.095L116.299 197.137L117.313 197.273L117.327 197.189C117.003 197.008 116.771 196.755 116.63 196.429C116.486 196.104 116.449 195.731 116.52 195.31C116.592 194.885 116.749 194.543 116.99 194.286C117.23 194.026 117.536 193.84 117.91 193.726L117.921 193.659C117.614 193.449 117.389 193.165 117.248 192.808C117.103 192.451 117.07 192.041 117.148 191.579C117.245 191.002 117.506 190.554 117.931 190.236C118.353 189.917 118.946 189.809 119.709 189.911L124.051 190.494L123.884 191.486L119.542 190.903C119.063 190.839 118.699 190.923 118.45 191.156C118.201 191.389 118.046 191.682 117.987 192.035C117.91 192.489 117.989 192.859 118.223 193.145C118.454 193.431 118.78 193.603 119.199 193.659L123.423 194.226L123.253 195.234L118.81 194.638C118.441 194.588 118.124 194.668 117.859 194.876C117.591 195.083 117.425 195.375 117.362 195.75C117.318 196.008 117.347 196.258 117.447 196.501C117.548 196.74 117.709 196.945 117.931 197.115C118.151 197.282 118.419 197.387 118.738 197.43L122.792 197.974L122.625 198.966Z" fill="black"/>
<path d="M189.057 207V198.273H190.114V202.159H194.767V198.273H195.824V207H194.767V203.097H190.114V207H189.057ZM197.94 207V198.273H200.888C201.57 198.273 202.13 198.389 202.567 198.622C203.005 198.852 203.329 199.169 203.539 199.572C203.749 199.976 203.854 200.435 203.854 200.949C203.854 201.463 203.749 201.919 203.539 202.317C203.329 202.714 203.006 203.027 202.572 203.254C202.137 203.479 201.582 203.591 200.906 203.591H198.519V202.636H200.871C201.337 202.636 201.712 202.568 201.996 202.432C202.283 202.295 202.491 202.102 202.619 201.852C202.749 201.599 202.815 201.298 202.815 200.949C202.815 200.599 202.749 200.294 202.619 200.033C202.488 199.771 202.279 199.57 201.992 199.428C201.705 199.283 201.326 199.21 200.854 199.21H198.996V207H197.94ZM202.048 203.08L204.195 207H202.968L200.854 203.08H202.048ZM205.615 207V198.273H206.672V202.159H211.326V198.273H212.382V207H211.326V203.097H206.672V207H205.615ZM214.362 207V200.455H215.368V207H214.362ZM214.873 199.364C214.677 199.364 214.508 199.297 214.366 199.163C214.227 199.03 214.157 198.869 214.157 198.682C214.157 198.494 214.227 198.334 214.366 198.2C214.508 198.067 214.677 198 214.873 198C215.069 198 215.237 198.067 215.376 198.2C215.518 198.334 215.589 198.494 215.589 198.682C215.589 198.869 215.518 199.03 215.376 199.163C215.237 199.297 215.069 199.364 214.873 199.364ZM222.562 200.455L220.141 207H219.119L216.698 200.455H217.789L219.596 205.67H219.664L221.471 200.455H222.562ZM226.399 207.136C225.768 207.136 225.224 206.997 224.767 206.719C224.312 206.438 223.962 206.045 223.714 205.543C223.47 205.037 223.348 204.449 223.348 203.778C223.348 203.108 223.47 202.517 223.714 202.006C223.962 201.491 224.305 201.091 224.746 200.804C225.189 200.514 225.706 200.369 226.297 200.369C226.638 200.369 226.974 200.426 227.307 200.54C227.639 200.653 227.942 200.838 228.214 201.094C228.487 201.347 228.705 201.682 228.866 202.099C229.028 202.517 229.109 203.031 229.109 203.642V204.068H224.064V203.199H228.087C228.087 202.83 228.013 202.5 227.865 202.21C227.72 201.92 227.513 201.692 227.243 201.524C226.976 201.357 226.661 201.273 226.297 201.273C225.896 201.273 225.55 201.372 225.257 201.571C224.967 201.767 224.744 202.023 224.588 202.338C224.432 202.653 224.354 202.991 224.354 203.352V203.932C224.354 204.426 224.439 204.845 224.609 205.189C224.783 205.53 225.023 205.79 225.33 205.969C225.636 206.145 225.993 206.233 226.399 206.233C226.663 206.233 226.902 206.196 227.115 206.122C227.331 206.045 227.517 205.932 227.673 205.781C227.83 205.628 227.95 205.437 228.036 205.21L229.007 205.483C228.905 205.812 228.733 206.102 228.491 206.352C228.25 206.599 227.952 206.793 227.597 206.932C227.241 207.068 226.842 207.136 226.399 207.136Z" fill="black"/>
<path d="M128.036 175.91C127.779 176.486 127.428 176.931 126.983 177.245C126.537 177.555 126.031 177.729 125.464 177.767C124.895 177.801 124.3 177.693 123.678 177.442C123.056 177.192 122.558 176.86 122.183 176.445C121.807 176.028 121.575 175.564 121.488 175.055C121.4 174.542 121.476 174.015 121.717 173.476C121.856 173.164 122.046 172.878 122.286 172.617C122.527 172.356 122.822 172.149 123.17 171.995C123.516 171.84 123.915 171.767 124.369 171.775C124.822 171.783 125.332 171.902 125.898 172.13L126.294 172.289L124.238 176.897L123.432 176.572L125.071 172.898C124.728 172.76 124.392 172.705 124.063 172.731C123.736 172.755 123.439 172.859 123.174 173.043C122.909 173.224 122.703 173.481 122.555 173.813C122.392 174.179 122.343 174.533 122.408 174.874C122.472 175.212 122.618 175.511 122.847 175.772C123.076 176.032 123.358 176.23 123.692 176.365L124.23 176.581C124.688 176.766 125.112 176.845 125.5 176.817C125.887 176.786 126.226 176.664 126.517 176.451C126.805 176.237 127.032 175.944 127.198 175.573C127.305 175.332 127.368 175.1 127.387 174.878C127.403 174.652 127.374 174.439 127.298 174.24C127.219 174.04 127.092 173.859 126.916 173.696L127.564 172.911C127.828 173.127 128.027 173.393 128.161 173.707C128.292 174.019 128.349 174.364 128.334 174.74C128.316 175.116 128.216 175.506 128.036 175.91Z" fill="black"/>
<path d="M133.493 156.175L136.659 158.517L136.036 159.306L130.773 155.414L131.375 154.651L132.197 155.259L132.25 155.192C132.078 154.874 132.008 154.532 132.039 154.167C132.068 153.8 132.236 153.423 132.542 153.035C132.816 152.687 133.13 152.436 133.482 152.283C133.832 152.129 134.211 152.088 134.62 152.161C135.027 152.232 135.454 152.434 135.901 152.765L139.245 155.238L138.622 156.028L135.333 153.595C134.92 153.289 134.515 153.156 134.119 153.195C133.721 153.232 133.377 153.434 133.089 153.799C132.89 154.051 132.768 154.318 132.723 154.599C132.681 154.878 132.722 155.154 132.847 155.427C132.971 155.699 133.187 155.949 133.493 156.175Z" fill="black"/>
<path d="M147.909 136.107L148.442 136.772L145.759 138.847L145.226 138.182L147.909 136.107ZM145.027 136.354L145.822 135.739L149.725 140.606C149.903 140.828 150.069 140.969 150.223 141.029C150.377 141.086 150.521 141.093 150.655 141.05C150.789 141.004 150.915 140.936 151.031 140.846C151.119 140.778 151.187 140.718 151.237 140.665C151.284 140.611 151.322 140.567 151.35 140.535L152.077 141.114C152.039 141.176 151.98 141.254 151.899 141.349C151.82 141.446 151.707 141.551 151.558 141.666C151.334 141.84 151.075 141.962 150.783 142.034C150.493 142.104 150.199 142.096 149.901 142.01C149.605 141.923 149.338 141.731 149.1 141.434L145.027 136.354Z" fill="black"/>
</svg>
