<svg width="201" height="200" viewBox="0 0 201 200" fill="none" xmlns="http://www.w3.org/2000/svg">
<circle cx="101" cy="100" r="100" fill="#FF0404" fill-opacity="0.36"/>
<circle cx="101" cy="100" r="52.5" stroke="#FF2222" stroke-opacity="0.15" stroke-width="5"/>
<path d="M98.267 31.6663C96.587 31.6663 95.087 31.3163 93.767 30.6163C92.467 29.8963 91.447 28.9163 90.707 27.6763C89.967 26.4363 89.597 25.0263 89.597 23.4463C89.597 21.8463 89.967 20.4363 90.707 19.2163C91.447 17.9763 92.467 17.0063 93.767 16.3063C95.087 15.6063 96.587 15.2563 98.267 15.2563C99.827 15.2563 101.197 15.5763 102.377 16.2163C103.577 16.8363 104.487 17.7563 105.107 18.9763L102.227 20.6563C101.747 19.8963 101.157 19.3363 100.457 18.9763C99.777 18.6163 99.037 18.4363 98.237 18.4363C97.317 18.4363 96.487 18.6363 95.747 19.0363C95.007 19.4363 94.427 20.0163 94.007 20.7763C93.587 21.5163 93.377 22.4063 93.377 23.4463C93.377 24.4863 93.587 25.3863 94.007 26.1463C94.427 26.8863 95.007 27.4563 95.747 27.8563C96.487 28.2563 97.317 28.4563 98.237 28.4563C99.037 28.4563 99.777 28.2763 100.457 27.9163C101.157 27.5563 101.747 26.9963 102.227 26.2363L105.107 27.9163C104.487 29.1163 103.577 30.0463 102.377 30.7063C101.197 31.3463 99.827 31.6663 98.267 31.6663Z" fill="black"/>
<path d="M162.902 73.4647L184.073 66.5859L185.232 70.1524L164.061 77.0311L162.902 73.4647Z" fill="black"/>
<path d="M139.246 158.97C140.573 158.006 141.96 157.431 143.407 157.245C144.866 157.075 146.259 157.274 147.586 157.842C148.914 158.411 150.042 159.334 150.971 160.612C151.911 161.907 152.44 163.265 152.559 164.687C152.689 166.125 152.442 167.503 151.818 168.822C151.194 170.141 150.219 171.282 148.892 172.246C147.549 173.222 146.154 173.803 144.707 173.989C143.244 174.186 141.862 174.003 140.563 173.44C139.247 172.888 138.113 171.956 137.161 170.646C136.232 169.367 135.703 168.009 135.572 166.571C135.426 165.145 135.667 163.758 136.296 162.412C136.92 161.093 137.903 159.946 139.246 158.97ZM141.133 161.567C140.389 162.108 139.843 162.751 139.495 163.498C139.148 164.245 139.036 165.043 139.159 165.893C139.266 166.755 139.619 167.599 140.219 168.424C140.83 169.265 141.523 169.862 142.298 170.214C143.068 170.593 143.862 170.733 144.68 170.634C145.497 170.534 146.27 170.22 146.998 169.691C147.743 169.15 148.288 168.506 148.636 167.76C148.967 167.024 149.079 166.226 148.972 165.364C148.877 164.519 148.524 163.675 147.912 162.834C147.313 162.009 146.62 161.412 145.833 161.044C145.047 160.676 144.253 160.536 143.452 160.624C142.634 160.724 141.861 161.038 141.133 161.567Z" fill="black"/>
<path d="M58.3844 160.155C59.4684 160.942 60.4121 161.838 61.2155 162.842C61.9909 163.85 62.5229 164.768 62.8115 165.596L59.9713 167.055C59.6592 166.26 59.1868 165.447 58.5541 164.617C57.9214 163.786 57.2006 163.077 56.3916 162.489C55.4369 161.796 54.6552 161.425 54.0464 161.379C53.4215 161.32 52.9503 161.509 52.6329 161.946C52.3743 162.302 52.3259 162.675 52.4878 163.065C52.638 163.47 52.9125 163.892 53.3112 164.33C53.7099 164.768 54.1711 165.239 54.6948 165.743C55.2023 166.236 55.7003 166.758 56.1887 167.311C56.6493 167.868 57.0201 168.446 57.3012 169.046C57.5706 169.662 57.6863 170.302 57.6484 170.967C57.6105 171.632 57.3212 172.336 56.7804 173.081C56.1809 173.906 55.429 174.447 54.5248 174.705C53.6089 174.979 52.6126 174.972 51.5362 174.684C50.4317 174.401 49.297 173.836 48.132 172.99C47.2583 172.355 46.447 171.617 45.6982 170.777C44.9493 169.936 44.4129 169.126 44.0891 168.347L46.9292 166.887C47.2737 167.706 47.7144 168.41 48.2514 168.998C48.7605 169.59 49.3224 170.109 49.9373 170.556C50.8596 171.226 51.6472 171.588 52.3001 171.642C52.9368 171.685 53.408 171.496 53.7136 171.075C53.9957 170.687 54.0617 170.29 53.9115 169.884C53.7614 169.478 53.4928 169.048 53.1059 168.594C52.7189 168.14 52.2717 167.666 51.7642 167.174C51.2287 166.686 50.7307 166.164 50.2702 165.607C49.8097 165.049 49.4389 164.471 49.1577 163.871C48.8486 163.276 48.7131 162.646 48.751 161.981C48.7889 161.317 49.0723 160.62 49.6014 159.892C50.1891 159.083 50.9432 158.556 51.8636 158.31C52.7678 158.052 53.7802 158.07 54.9008 158.365C56.0096 158.677 57.1708 159.273 58.3844 160.155Z" fill="black"/>
<path d="M31.2468 79.8405C30.6968 81.5334 29.8818 82.9089 28.802 83.967C27.7094 84.9999 26.459 85.6766 25.0511 85.9972C23.6493 86.2988 22.197 86.2055 20.6944 85.7172C19.1727 85.2228 17.9398 84.4542 16.9958 83.4115C16.039 82.3436 15.4193 81.1118 15.1368 79.7162C14.8604 78.3015 14.9694 76.8333 15.4639 75.3117C15.9459 73.828 16.6988 72.6111 17.7225 71.6609C18.7463 70.7108 19.9559 70.0944 21.3515 69.8119C22.7472 69.5293 24.2439 69.6476 25.8416 70.1668C25.9938 70.2162 26.1619 70.2813 26.3459 70.3622C26.5362 70.424 26.7138 70.4922 26.8788 70.5668L22.7534 83.2634L20.3853 82.494L23.8988 71.6805L24.1864 73.3196C23.3176 73.0162 22.4885 72.9466 21.6992 73.1107C20.9098 73.2749 20.2168 73.628 19.62 74.1701C19.0295 74.6932 18.5951 75.3827 18.317 76.2387C18.0327 77.1137 17.9726 77.9458 18.1368 78.7352C18.307 79.5055 18.6728 80.1921 19.2339 80.795C19.7822 81.3728 20.5129 81.8099 21.4259 82.1066L21.9965 82.292C22.9096 82.5887 23.7859 82.6421 24.6257 82.4523C25.4654 82.2625 26.1991 81.849 26.8268 81.2118C27.4544 80.5745 27.9289 79.7613 28.2503 78.7722C28.5284 77.9163 28.6456 77.1027 28.6018 76.3314C28.558 75.5601 28.3373 74.8155 27.9397 74.0975L30.7577 72.8997C31.3341 73.844 31.6711 74.9103 31.7687 76.0986C31.8534 77.2617 31.6795 78.509 31.2468 79.8405Z" fill="black"/>
<path d="M90.081 116L100.28 102.746L100.233 103.874L90.598 91.466H93.277L101.69 102.323H100.703L109.069 91.466H111.701L101.972 104.015L102.019 102.746L112.359 116H109.586L100.703 104.438L101.596 104.532L92.76 116H90.081Z" fill="black"/>
</svg>
