<svg width="412" height="407" viewBox="0 0 412 407" fill="none" xmlns="http://www.w3.org/2000/svg">
<path d="M212.852 22.9126V6.9126H218.258C219.513 6.9126 220.539 7.13916 221.336 7.59228C222.138 8.0402 222.732 8.64697 223.117 9.4126C223.503 10.1782 223.695 11.0324 223.695 11.9751C223.695 12.9178 223.503 13.7746 223.117 14.5454C222.737 15.3162 222.148 15.9308 221.352 16.3892C220.555 16.8423 219.534 17.0688 218.289 17.0688H214.414V15.3501H218.227C219.086 15.3501 219.776 15.2017 220.297 14.9048C220.818 14.6079 221.195 14.2069 221.43 13.7017C221.669 13.1912 221.789 12.6157 221.789 11.9751C221.789 11.3345 221.669 10.7616 221.43 10.2563C221.195 9.75114 220.815 9.35531 220.289 9.06885C219.763 8.77718 219.065 8.63135 218.195 8.63135H214.789V22.9126H212.852Z" fill="black"/>
<path d="M294.22 44.6867C293.534 44.3568 292.975 43.9283 292.541 43.4013C292.109 42.8696 291.847 42.2783 291.756 41.6274C291.667 40.9718 291.792 40.292 292.131 39.5882C292.429 38.9688 292.793 38.5254 293.223 38.2581C293.654 37.9862 294.127 37.8382 294.642 37.8142C295.156 37.7903 295.686 37.843 296.23 37.9724C296.782 38.0993 297.325 38.2508 297.858 38.4269C298.556 38.6588 299.119 38.8519 299.548 39.0063C299.983 39.1582 300.321 39.2254 300.561 39.2079C300.805 39.1926 300.992 39.0513 301.12 38.7838L301.147 38.7275C301.482 38.033 301.552 37.4018 301.357 36.834C301.167 36.2684 300.689 35.8014 299.924 35.4331C299.131 35.0512 298.426 34.9254 297.808 35.0557C297.191 35.186 296.695 35.4042 296.323 35.7102L295.017 34.3878C295.615 33.8664 296.237 33.5357 296.882 33.3957C297.535 33.2532 298.175 33.2437 298.804 33.3672C299.439 33.4882 300.029 33.6798 300.573 33.9419C300.92 34.1091 301.299 34.3434 301.709 34.6449C302.126 34.9438 302.484 35.3217 302.784 35.7785C303.089 36.2375 303.26 36.7906 303.295 37.4377C303.33 38.0847 303.141 38.8376 302.727 39.6964L299.297 46.8197L297.636 46.0197L298.341 44.5556L298.256 44.5149C298.031 44.6953 297.722 44.856 297.331 44.9969C296.939 45.1378 296.48 45.1971 295.953 45.1746C295.426 45.1522 294.848 44.9895 294.22 44.6867ZM295.192 43.3165C295.848 43.6329 296.464 43.7705 297.039 43.7293C297.619 43.6905 298.122 43.5222 298.548 43.2247C298.979 42.9295 299.303 42.5566 299.52 42.1061L300.253 40.5857C300.142 40.6363 299.949 40.6391 299.676 40.5943C299.41 40.547 299.109 40.4746 298.775 40.377C298.447 40.2771 298.129 40.1758 297.82 40.0732C297.518 39.9682 297.272 39.8845 297.082 39.8221C296.624 39.6705 296.176 39.5677 295.74 39.5136C295.31 39.4571 294.921 39.4978 294.571 39.6358C294.228 39.7713 293.955 40.0503 293.752 40.4726C293.474 41.0498 293.477 41.589 293.762 42.0903C294.053 42.5891 294.53 42.9979 295.192 43.3165Z" fill="black"/>
<path d="M359.911 112.734C359.356 112.038 358.968 111.368 358.748 110.724C358.523 110.083 358.423 109.481 358.446 108.916C358.468 108.359 358.563 107.853 358.733 107.398L360.455 107.903C360.388 108.17 360.324 108.491 360.264 108.865C360.199 109.244 360.223 109.671 360.336 110.147C360.448 110.63 360.73 111.155 361.182 111.721C361.786 112.478 362.467 112.957 363.227 113.158C363.986 113.358 364.757 113.146 365.539 112.523L367.444 111.003L367.347 110.881C367.091 110.912 366.76 110.93 366.351 110.936C365.95 110.942 365.507 110.842 365.023 110.636C364.546 110.43 364.064 110.022 363.577 109.411C362.973 108.654 362.609 107.831 362.487 106.942C362.368 106.058 362.511 105.168 362.916 104.272C363.324 103.381 364.017 102.545 364.994 101.766C365.955 100.999 366.926 100.501 367.909 100.271C368.895 100.037 369.824 100.066 370.695 100.357C371.571 100.644 372.324 101.183 372.954 101.973C373.441 102.584 373.725 103.15 373.807 103.67C373.897 104.192 373.89 104.651 373.786 105.047C373.689 105.443 373.602 105.76 373.523 105.996L373.64 106.142L375.131 104.954L376.241 106.346L366.59 114.042C365.784 114.685 364.982 115.025 364.185 115.061C363.387 115.105 362.625 114.913 361.898 114.487C361.171 114.067 360.509 113.483 359.911 112.734ZM365.027 108.574C365.488 109.152 366.01 109.535 366.593 109.723C367.176 109.911 367.799 109.911 368.461 109.722C369.124 109.534 369.801 109.164 370.493 108.612C371.169 108.073 371.685 107.495 372.039 106.879C372.394 106.263 372.559 105.639 372.534 105.006C372.509 104.373 372.263 103.763 371.795 103.177C371.308 102.566 370.747 102.18 370.113 102.02C369.482 101.864 368.825 101.892 368.141 102.104C367.461 102.32 366.803 102.681 366.168 103.188C365.516 103.707 365.021 104.269 364.683 104.872C364.352 105.475 364.204 106.093 364.241 106.723C364.285 107.354 364.547 107.971 365.027 108.574Z" fill="black"/>
<path d="M388.652 192.593C388.394 191.466 388.421 190.437 388.732 189.506C389.049 188.578 389.607 187.791 390.405 187.145C391.209 186.502 392.21 186.043 393.409 185.77C394.607 185.496 395.713 185.474 396.727 185.702C397.747 185.934 398.603 186.385 399.295 187.055C399.994 187.729 400.464 188.594 400.705 189.65C400.844 190.259 400.88 190.884 400.812 191.524C400.745 192.165 400.538 192.781 400.192 193.373C399.852 193.963 399.341 194.489 398.661 194.948C397.981 195.408 397.095 195.763 396.003 196.012L395.241 196.186L393.183 187.168L394.737 186.813L396.378 194.003C397.038 193.852 397.597 193.586 398.054 193.204C398.513 192.826 398.837 192.363 399.027 191.812C399.218 191.266 399.239 190.668 399.09 190.018C398.927 189.302 398.608 188.723 398.133 188.282C397.664 187.844 397.116 187.549 396.489 187.399C395.862 187.248 395.226 187.246 394.581 187.393L393.545 187.63C392.661 187.832 391.947 188.155 391.402 188.6C390.864 189.049 390.497 189.584 390.302 190.205C390.113 190.825 390.101 191.499 390.266 192.225C390.374 192.697 390.537 193.108 390.756 193.459C390.982 193.814 391.261 194.1 391.593 194.318C391.931 194.534 392.321 194.673 392.762 194.732L392.671 196.58C392.04 196.532 391.452 196.343 390.907 196.013C390.366 195.682 389.899 195.228 389.506 194.65C389.117 194.071 388.832 193.385 388.652 192.593Z" fill="black"/>
<path d="M357.743 327.9L345.233 317.925L346.402 316.459L361.66 317.475L361.758 317.352L351.936 309.52L353.144 308.005L365.653 317.981L364.484 319.447L349.182 318.436L349.085 318.558L358.931 326.41L357.743 327.9Z" fill="black"/>
<path d="M292.01 363.891C292.986 363.421 293.954 363.241 294.914 363.351C295.87 363.463 296.756 363.837 297.571 364.473C298.381 365.112 299.055 365.99 299.593 367.107C300.136 368.233 300.405 369.314 300.401 370.351C300.393 371.39 300.134 372.318 299.626 373.135C299.113 373.954 298.369 374.599 297.393 375.069C296.416 375.539 295.451 375.718 294.495 375.606C293.534 375.496 292.648 375.119 291.835 374.476C291.018 373.835 290.338 372.951 289.795 371.825C289.257 370.708 288.994 369.633 289.005 368.599C289.011 367.567 289.27 366.641 289.783 365.822C290.291 365.005 291.034 364.361 292.01 363.891ZM292.728 365.383C291.987 365.74 291.468 366.224 291.173 366.835C290.877 367.445 290.764 368.116 290.832 368.846C290.9 369.576 291.108 370.302 291.456 371.025C291.804 371.748 292.244 372.366 292.774 372.879C293.305 373.393 293.902 373.726 294.566 373.881C295.23 374.035 295.932 373.934 296.674 373.577C297.415 373.22 297.933 372.733 298.226 372.118C298.519 371.503 298.631 370.828 298.56 370.093C298.489 369.358 298.28 368.629 297.932 367.907C297.584 367.184 297.146 366.568 296.618 366.06C296.09 365.551 295.495 365.222 294.833 365.072C294.171 364.923 293.47 365.026 292.728 365.383Z" fill="black"/>
<path d="M213.18 396.087V394.525H219.398V396.087H213.18ZM217.586 398.962H215.742V387.525C215.742 387.004 215.667 386.613 215.516 386.353C215.359 386.098 215.161 385.926 214.922 385.837C214.677 385.754 214.419 385.712 214.148 385.712C213.945 385.712 213.779 385.723 213.648 385.744C213.518 385.77 213.414 385.791 213.336 385.806L212.961 384.15C213.086 384.103 213.26 384.056 213.484 384.009C213.708 383.957 213.992 383.931 214.336 383.931C214.857 383.931 215.367 384.043 215.867 384.267C216.362 384.491 216.773 384.832 217.102 385.291C217.424 385.749 217.586 386.327 217.586 387.025V398.962Z" fill="black"/>
<path d="M107.239 352.819L94.73 362.795L88.7484 355.294L90.0922 354.223L94.8658 360.209L99.0926 356.838L94.7671 351.414L96.1109 350.342L100.436 355.766L106.031 351.304L107.239 352.819Z" fill="black"/>
<path d="M44.3832 287.559C44.6243 288.615 44.5844 289.599 44.2637 290.511C43.9418 291.418 43.3799 292.198 42.5781 292.851C41.7751 293.499 40.7693 293.961 39.5608 294.237C38.3422 294.515 37.2279 294.537 36.2182 294.303C35.2073 294.064 34.3601 293.605 33.6766 292.928C32.9919 292.245 32.5291 291.376 32.288 290.32C32.047 289.264 32.0874 288.282 32.4093 287.375C32.73 286.463 33.2944 285.683 34.1025 285.033C34.9094 284.379 35.9222 283.913 37.1409 283.635C38.3494 283.359 39.4566 283.341 40.4624 283.582C41.4671 283.817 42.3117 284.276 42.9964 284.959C43.6799 285.636 44.1422 286.503 44.3832 287.559ZM42.7685 287.928C42.5854 287.125 42.2291 286.512 41.6996 286.088C41.17 285.664 40.5418 285.404 39.8147 285.308C39.0877 285.213 38.3331 285.254 37.5512 285.432C36.7692 285.611 36.0689 285.902 35.4504 286.304C34.8318 286.707 34.3735 287.215 34.0753 287.828C33.7772 288.441 33.7196 289.149 33.9027 289.951C34.0859 290.754 34.4447 291.366 34.9793 291.789C35.5139 292.212 36.1473 292.471 36.8794 292.565C37.6115 292.66 38.3686 292.618 39.1505 292.44C39.9325 292.261 40.6302 291.971 41.2437 291.569C41.8572 291.167 42.3105 290.661 42.6035 290.049C42.8966 289.437 42.9516 288.73 42.7685 287.928Z" fill="black"/>
<path d="M19.3807 192.092L12.4648 190.513L12.8751 188.716L24.5742 191.386L24.164 193.184L22.1836 192.732L22.1558 192.853C22.6873 193.263 23.0952 193.805 23.3795 194.479C23.6586 195.152 23.6974 195.93 23.4957 196.813C23.3289 197.545 23.0206 198.158 22.5709 198.654C22.1161 199.148 21.5266 199.484 20.8025 199.66C20.0733 199.836 19.2111 199.81 18.2158 199.583L10.782 197.886L11.1923 196.089L18.5042 197.758C19.3573 197.952 20.0922 197.869 20.7089 197.507C21.3268 197.141 21.7209 196.585 21.8913 195.838C21.9933 195.391 21.9827 194.911 21.8597 194.397C21.7378 193.877 21.4767 193.406 21.0763 192.984C20.6771 192.556 20.1119 192.259 19.3807 192.092Z" fill="black"/>
<path d="M38.2059 114.248L43.8497 118.749L42.7002 120.19L33.3182 112.709L34.4288 111.316L35.8947 112.485L35.9922 112.363C35.6911 111.763 35.5746 111.124 35.6427 110.445C35.7067 109.764 36.0212 109.068 36.5863 108.36C37.0929 107.725 37.6664 107.273 38.307 107.004C38.9435 106.732 39.6299 106.673 40.3662 106.828C41.0985 106.979 41.8638 107.372 42.6619 108.009L48.6233 112.763L47.4738 114.205L41.61 109.528C40.873 108.941 40.1462 108.674 39.4297 108.729C38.7091 108.78 38.0825 109.14 37.55 109.808C37.183 110.268 36.9548 110.759 36.8653 111.28C36.7791 111.798 36.8445 112.313 37.0617 112.826C37.2788 113.339 37.6602 113.813 38.2059 114.248Z" fill="black"/>
<path d="M102.681 55.258C101.78 55.6919 100.875 55.8473 99.9657 55.7244C99.0544 55.5967 98.2029 55.209 97.4112 54.5613C96.6172 53.9089 95.9445 53.0102 95.3931 51.8652C94.8462 50.7296 94.5664 49.6504 94.5537 48.6276C94.5409 47.6047 94.7722 46.6985 95.2475 45.9089C95.7227 45.1192 96.4156 44.5052 97.3259 44.0668C98.0298 43.7278 98.6424 43.5774 99.1636 43.6154C99.6873 43.6465 100.128 43.7578 100.486 43.9495C100.847 44.1342 101.134 44.2911 101.346 44.42L101.487 44.3522L98.9242 39.0309L100.585 38.2309L107.528 52.6464L105.923 53.4193L105.123 51.7581L104.926 51.853C104.898 52.1089 104.845 52.4412 104.764 52.85C104.681 53.2541 104.487 53.674 104.183 54.1097C103.876 54.5408 103.375 54.9236 102.681 55.258ZM102.187 53.6573C102.854 53.3364 103.333 52.8916 103.626 52.3229C103.916 51.7495 104.032 51.0955 103.973 50.3608C103.912 49.6214 103.684 48.8435 103.291 48.027C102.903 47.2199 102.445 46.5702 101.919 46.0778C101.391 45.5808 100.815 45.274 100.192 45.1576C99.5676 45.0366 98.9174 45.1387 98.2416 45.4641C97.5378 45.8031 97.0382 46.2662 96.7429 46.8535C96.4501 47.4339 96.3344 48.0879 96.3958 48.8156C96.4597 49.5364 96.6746 50.2769 97.0407 51.0371C97.4113 51.8067 97.8654 52.4493 98.4028 52.9652C98.9427 53.474 99.5342 53.8019 100.177 53.9489C100.823 54.089 101.493 53.9918 102.187 53.6573Z" fill="black"/>
</svg>
