<svg width="591" height="593" viewBox="0 0 591 593" fill="none" xmlns="http://www.w3.org/2000/svg">
<path d="M366.345 30.6235L356.161 56.3896L348.944 55.7244L345.821 36.7819L339.289 54.8345L332.023 54.1649L326.673 26.967L333.46 27.5926L336.285 48.1948L343.211 28.4913L350.285 29.1433L353.401 49.7242L359.94 30.0332L366.345 30.6235Z" fill="black"/>
<path d="M457.004 73.6896C456.614 74.5666 456.204 75.3298 455.775 75.9794L438.015 68.0724C437.381 69.8915 437.383 71.5388 438.022 73.0143C438.661 74.4898 439.77 75.579 441.348 76.2819C443.629 77.2971 445.687 77.0401 447.524 75.511L454.145 78.459C452.402 80.4853 450.199 81.816 447.534 82.4511C444.882 83.0569 442.109 82.7156 439.215 81.427C436.877 80.3858 434.999 78.9371 433.584 77.0809C432.211 75.2085 431.421 73.088 431.215 70.7192C431.038 68.3635 431.502 65.9432 432.609 63.4584C433.728 60.9443 435.222 58.965 437.091 57.5203C438.96 56.0757 441.044 55.2518 443.341 55.0486C445.638 54.8454 447.985 55.2775 450.383 56.3447C452.692 57.373 454.532 58.7875 455.902 60.5884C457.301 62.4024 458.087 64.4514 458.261 66.7357C458.478 69.0037 458.059 71.3217 457.004 73.6896ZM451.427 69.1047C452.101 67.5131 452.09 66.0022 451.396 64.5722C450.714 63.1129 449.57 62.0253 447.962 61.3094C446.442 60.6326 444.947 60.5277 443.478 60.9946C442.052 61.4453 440.857 62.4371 439.894 63.97L451.427 69.1047Z" fill="black"/>
<path d="M528.988 188.236C531.544 187.406 533.975 187.171 536.279 187.533C538.594 187.925 540.565 188.815 542.194 190.204C543.833 191.623 545.003 193.413 545.706 195.574C546.319 197.461 546.472 199.228 546.166 200.875C545.87 202.552 545.282 204.005 544.403 205.233L548.009 204.061L550.1 210.498L524.81 218.715L522.719 212.279L526.416 211.077C524.962 210.641 523.602 209.821 522.337 208.617C521.111 207.434 520.192 205.899 519.578 204.012C518.886 201.882 518.801 199.756 519.323 197.635C519.855 195.544 520.942 193.66 522.584 191.983C524.267 190.326 526.401 189.077 528.988 188.236ZM535.364 208.17C536.916 207.666 538.141 206.931 539.039 205.966C539.967 204.992 540.552 203.893 540.794 202.671C541.067 201.438 541.01 200.228 540.624 199.041C540.239 197.855 539.594 196.853 538.689 196.036C537.785 195.22 536.665 194.675 535.332 194.402C534.038 194.149 532.631 194.27 531.109 194.765C529.587 195.259 528.347 195.998 527.388 196.983C526.47 197.988 525.87 199.091 525.587 200.293C525.315 201.526 525.367 202.72 525.742 203.877C526.128 205.064 526.778 206.081 527.692 206.928C528.637 207.765 529.757 208.309 531.05 208.562C532.374 208.805 533.812 208.674 535.364 208.17Z" fill="black"/>
<path d="M559.57 303.529C560.88 304.535 561.861 305.765 562.513 307.217C563.161 308.701 563.392 310.334 563.204 312.116L556.187 311.378L556.373 309.612C556.593 307.511 556.267 305.868 555.394 304.683C554.518 303.529 552.855 302.823 550.404 302.565L537.229 301.181L537.931 294.498L564.378 297.277L563.675 303.96L559.57 303.529Z" fill="black"/>
<path d="M516.034 423.235C515.203 422.755 514.487 422.267 513.885 421.772L523.605 404.937C521.863 404.115 520.224 403.945 518.69 404.427C517.156 404.908 515.957 405.897 515.093 407.394C513.845 409.555 513.885 411.629 515.214 413.616L511.59 419.893C509.757 417.948 508.664 415.617 508.311 412.9C507.985 410.2 508.615 407.478 510.199 404.734C511.479 402.517 513.116 400.802 515.109 399.588C517.115 398.418 519.307 397.855 521.684 397.897C524.045 397.967 526.404 398.682 528.759 400.042C531.143 401.418 532.955 403.111 534.196 405.121C535.438 407.131 536.039 409.289 536.001 411.595C535.963 413.901 535.288 416.19 533.976 418.462C532.712 420.652 531.113 422.333 529.179 423.508C527.229 424.709 525.108 425.277 522.819 425.212C520.54 425.19 518.279 424.531 516.034 423.235ZM521.177 418.167C522.689 419.003 524.193 419.151 525.688 418.61C527.21 418.085 528.412 417.06 529.292 415.536C530.124 414.095 530.384 412.62 530.073 411.11C529.774 409.644 528.913 408.352 527.489 407.234L521.177 418.167Z" fill="black"/>
<path d="M363.561 551.238L360.886 538.655C360.7 537.779 360.36 537.18 359.867 536.86C359.349 536.577 358.589 536.542 357.587 536.755L354.536 537.404L353.358 531.864L357.49 530.986C363.03 529.808 366.372 531.911 367.516 537.295L370.181 549.831L373.28 549.172L374.427 554.571L371.329 555.23L372.696 561.662L366.076 563.07L364.709 556.637L358.887 557.875L357.739 552.475L363.561 551.238Z" fill="black"/>
<path d="M244.436 562.8C242.464 562.381 240.805 561.57 239.457 560.367C238.103 559.196 237.183 557.676 236.697 555.806C236.174 553.961 236.161 551.864 236.66 549.517L239.904 534.258L246.477 535.655L243.423 550.022C242.984 552.088 243.164 553.778 243.964 555.093C244.758 556.44 246.047 557.302 247.831 557.682C249.646 558.068 251.206 557.81 252.509 556.91C253.775 556.034 254.628 554.563 255.067 552.497L258.121 538.13L264.694 539.527L257.309 574.271L250.736 572.874L253.28 560.901C252.196 561.848 250.883 562.485 249.341 562.812C247.793 563.17 246.158 563.166 244.436 562.8Z" fill="black"/>
<path d="M138.951 504.293C139.515 503.516 140.075 502.855 140.63 502.309L156.357 513.735C157.356 512.088 157.697 510.476 157.378 508.9C157.06 507.324 156.202 506.028 154.804 505.012C152.784 503.545 150.717 503.369 148.603 504.483L142.739 500.222C144.865 498.603 147.297 497.759 150.036 497.692C152.756 497.651 155.397 498.561 157.96 500.423C160.031 501.928 161.566 503.735 162.564 505.845C163.518 507.962 163.85 510.201 163.559 512.56C163.243 514.901 162.285 517.172 160.686 519.373C159.069 521.599 157.196 523.225 155.067 524.249C152.938 525.273 150.729 525.646 148.44 525.367C146.151 525.089 143.945 524.178 141.822 522.636C139.776 521.15 138.271 519.383 137.306 517.337C136.314 515.272 135.971 513.104 136.275 510.834C136.536 508.57 137.427 506.39 138.951 504.293ZM143.453 509.937C142.463 511.354 142.159 512.834 142.541 514.377C142.904 515.946 143.798 517.248 145.222 518.283C146.568 519.261 148.008 519.674 149.542 519.523C151.031 519.379 152.406 518.657 153.666 517.358L143.453 509.937Z" fill="black"/>
<path d="M37.079 352.543C35.7157 351.818 34.5576 350.749 33.6048 349.337C32.6486 347.893 32.0685 346.2 31.8645 344.259C31.627 342 31.9698 339.904 32.893 337.973C33.8129 336.01 35.2519 334.395 37.2101 333.127C39.1332 331.831 41.4473 331.041 44.1524 330.757C46.8575 330.472 49.3171 330.761 51.5313 331.622C53.7103 332.455 55.4696 333.734 56.8093 335.459C58.1456 337.153 58.9326 339.13 59.17 341.389C59.3774 343.362 59.1778 345.137 58.5712 346.713C57.9295 348.26 57.0349 349.545 55.8874 350.567L59.6586 350.17L60.361 356.853L25.0356 360.566L24.3332 353.883L37.079 352.543ZM44.8699 337.583C43.2786 337.75 41.9453 338.228 40.8698 339.017C39.7592 339.777 38.9584 340.73 38.4675 341.876C37.9732 342.99 37.7913 344.167 37.9218 345.408C38.0489 346.618 38.4875 347.73 39.2377 348.745C39.9528 349.732 40.9342 350.497 42.182 351.042C43.4264 351.555 44.8442 351.727 46.4354 351.56C48.0267 351.393 49.3776 350.929 50.4882 350.169C51.5955 349.377 52.4122 348.422 52.9383 347.305C53.4292 346.159 53.6111 344.982 53.484 343.773C53.3536 342.531 52.9149 341.419 52.168 340.436C51.4178 339.421 50.4205 338.657 49.1761 338.144C47.9283 337.599 46.4929 337.413 44.8699 337.583Z" fill="black"/>
<path d="M46.0135 222.377C46.9265 222.673 47.7284 223.001 48.4193 223.36L42.412 241.849C44.2875 242.29 45.9255 242.116 47.3262 241.326C48.7268 240.536 49.6941 239.319 50.2281 237.676C50.9994 235.302 50.5286 233.282 48.8159 231.615L51.0557 224.722C53.253 226.243 54.8068 228.296 55.7169 230.879C56.5966 233.453 56.547 236.247 55.568 239.26C54.777 241.694 53.5324 243.712 51.8343 245.314C50.1157 246.875 48.0894 247.883 45.7552 248.335C43.4309 248.758 40.9753 248.549 38.3884 247.708C35.7711 246.858 33.6464 245.579 32.0143 243.871C30.3822 242.163 29.3451 240.177 28.9029 237.914C28.4606 235.65 28.645 233.271 29.4558 230.775C30.237 228.371 31.4515 226.393 33.0994 224.843C34.7571 223.262 36.7127 222.265 38.9663 221.853C41.1993 221.401 43.5484 221.576 46.0135 222.377ZM42.0367 228.403C40.3834 227.899 38.8819 228.068 37.5323 228.908C36.1522 229.738 35.1902 230.99 34.6463 232.664C34.1321 234.246 34.184 235.743 34.8019 237.155C35.3992 238.527 36.5105 239.612 38.1357 240.409L42.0367 228.403Z" fill="black"/>
<path d="M90.6504 145.182C89.1944 146.799 87.6029 147.992 85.8759 148.763C84.1251 149.511 82.4077 149.817 80.7238 149.678C79.0612 149.516 77.5914 148.925 76.3144 147.904L80.843 142.875C81.6897 143.465 82.6517 143.663 83.7293 143.471C84.8282 143.255 85.8166 142.659 86.6945 141.684C87.551 140.733 88.0245 139.825 88.1151 138.959C88.2271 138.069 87.9858 137.357 87.3913 136.821C86.7492 136.243 85.9739 136.148 85.0652 136.536C84.1541 136.878 82.866 137.591 81.2007 138.675C79.5165 139.829 78.0559 140.71 76.8189 141.318C75.6033 141.903 74.2927 142.187 72.887 142.17C71.5027 142.129 70.1447 141.509 68.8129 140.31C67.719 139.325 66.9986 138.117 66.6517 136.685C66.3261 135.229 66.4264 133.683 66.9524 132.047C67.4998 130.387 68.4908 128.76 69.9255 127.167C72.0453 124.812 74.3313 123.469 76.7837 123.137C79.2123 122.783 81.4896 123.434 83.6156 125.09L79.3118 129.87C78.4628 129.234 77.5447 129.011 76.5576 129.198C75.5681 129.341 74.6344 129.899 73.7565 130.874C72.9428 131.778 72.4776 132.63 72.3609 133.429C72.2656 134.204 72.5152 134.859 73.1097 135.395C73.7755 135.994 74.5866 136.122 75.5428 135.777C76.4753 135.411 77.7516 134.687 79.3716 133.605C81.013 132.499 82.4415 131.654 83.6571 131.069C84.8727 130.484 86.1845 130.223 87.5926 130.285C88.9983 130.302 90.3658 130.888 91.6952 132.042C92.8366 133.069 93.5701 134.311 93.8957 135.767C94.2426 137.199 94.1424 138.745 93.5949 140.405C93.0451 142.02 92.0636 143.612 90.6504 145.182Z" fill="black"/>
<path d="M159.542 63.4698L164.774 75.2217C165.139 76.0402 165.595 76.5549 166.145 76.7657C166.71 76.9343 167.461 76.8103 168.396 76.3938L171.246 75.1248L173.55 80.2991L169.691 82.0172C164.517 84.3209 160.81 82.9587 158.572 77.9306L153.359 66.2226L150.465 67.5111L148.22 62.4684L151.114 61.1798L148.439 55.1723L154.622 52.4196L157.297 58.427L162.734 56.0061L164.979 61.0489L159.542 63.4698Z" fill="black"/>
</svg>
